<svg width="32" height="32" viewBox="0 0 32 32" fill="none" xmlns="http://www.w3.org/2000/svg">
<g clip-path="url(#clip0_5_96)">
<rect width="32" height="32" rx="3" fill="#556978"/>
<g filter="url(#filter0_f_5_96)">
<path d="M16 11.2632H10.6L11.5 16.5263H14.2V26C12.1 24.9474 7.72 22.2105 7 19.6842L8.8 8.10526C9.55 7.40351 12.04 6 16 6" stroke="black"/>
<path d="M16 11.2632H21.4L20.5 16.5263H17.8V26C19.9 24.9474 24.28 22.2105 25 19.6842L23.2 8.10526C22.45 7.40351 19.96 6 16 6" stroke="black"/>
<path d="M13.75 16.5882V25.4118C11.6875 24.0392 7.5625 20.8235 7.5625 18.9412C7.5625 17.0588 9.8125 16.5882 10.9375 16.5882L13.1875 17.1765L11.0781 20.1176M11.0781 20.1176L9.8125 21.8824C8.6875 20.7059 7.1125 18.1176 9.8125 17.1765C12.5125 16.2353 11.7812 18.7451 11.0781 20.1176Z" stroke="black"/>
<path d="M14.0029 16.894L13.4921 24.4652L9.12512 22.5143L14.0029 16.894Z" fill="black"/>
<circle cx="11" cy="19" r="3" fill="black"/>
<path d="M10.9375 17.7647L9.25 8.94118L8.125 18.9412L9.8125 7.7647L16 6.58823" stroke="black"/>
<path d="M9.13637 11.9488L11.1031 16.4667L8.51915 16.8707L9.13637 11.9488Z" fill="black"/>
<rect x="14" y="6" width="4" height="5" fill="black"/>
<rect x="10" y="7" width="4" height="4" fill="black"/>
<path d="M10.375 7.17647L10 11" stroke="black"/>
<path d="M18.25 16.5882V25.4118C20.3125 24.0392 24.4375 20.8235 24.4375 18.9412C24.4375 17.0588 22.1875 16.5882 21.0625 16.5882L18.8125 17.1765L20.9219 20.1176M20.9219 20.1176L22.1875 21.8824C23.3125 20.7059 24.8875 18.1176 22.1875 17.1765C19.4875 16.2353 20.2188 18.7451 20.9219 20.1176Z" stroke="black"/>
<path d="M17.9971 16.894L18.5079 24.4652L22.8749 22.5143L17.9971 16.894Z" fill="black"/>
<circle r="3" transform="matrix(-1 0 0 1 21 19)" fill="black"/>
<path d="M21.0625 17.7647L22.75 8.94118L23.875 18.9412L22.1875 7.7647L16 6.58823" stroke="black"/>
<path d="M22.8636 11.9488L20.8969 16.4667L23.4808 16.8707L22.8636 11.9488Z" fill="black"/>
<rect width="4" height="4" transform="matrix(-1 0 0 1 22 7)" fill="black"/>
<path d="M21.625 7.17647L22 11" stroke="black"/>
</g>
<g filter="url(#filter1_d_5_96)">
<path d="M16 11.2632H10.6L11.5 16.5263H14.2V26C12.1 24.9474 7.72 22.2105 7 19.6842L8.8 8.10526C9.55 7.40351 12.04 6 16 6" stroke="black"/>
<path d="M16 11.2632H21.4L20.5 16.5263H17.8V26C19.9 24.9474 24.28 22.2105 25 19.6842L23.2 8.10526C22.45 7.40351 19.96 6 16 6" stroke="black"/>
<path d="M13.75 16.5882V25.4118C11.6875 24.0392 7.5625 20.8235 7.5625 18.9412C7.5625 17.0588 9.8125 16.5882 10.9375 16.5882L13.1875 17.1765L11.0781 20.1176M11.0781 20.1176L9.8125 21.8824C8.6875 20.7059 7.1125 18.1176 9.8125 17.1765C12.5125 16.2353 11.7812 18.7451 11.0781 20.1176Z" stroke="black"/>
<path d="M14.0029 16.894L13.4921 24.4652L9.12512 22.5143L14.0029 16.894Z" fill="black"/>
<circle cx="11" cy="19" r="3" fill="black"/>
<path d="M10.9375 17.7647L9.25 8.94118L8.125 18.9412L9.8125 7.7647L16 6.58823" stroke="black"/>
<path d="M9.13637 11.9488L11.1031 16.4667L8.51915 16.8707L9.13637 11.9488Z" fill="black"/>
<rect x="14" y="6" width="4" height="5" fill="black"/>
<rect x="10" y="7" width="4" height="4" fill="black"/>
<path d="M10.375 7.17647L10 11" stroke="black"/>
<path d="M18.25 16.5882V25.4118C20.3125 24.0392 24.4375 20.8235 24.4375 18.9412C24.4375 17.0588 22.1875 16.5882 21.0625 16.5882L18.8125 17.1765L20.9219 20.1176M20.9219 20.1176L22.1875 21.8824C23.3125 20.7059 24.8875 18.1176 22.1875 17.1765C19.4875 16.2353 20.2188 18.7451 20.9219 20.1176Z" stroke="black"/>
<path d="M17.9971 16.894L18.5079 24.4652L22.8749 22.5143L17.9971 16.894Z" fill="black"/>
<circle r="3" transform="matrix(-1 0 0 1 21 19)" fill="black"/>
<path d="M21.0625 17.7647L22.75 8.94118L23.875 18.9412L22.1875 7.7647L16 6.58823" stroke="black"/>
<path d="M22.8636 11.9488L20.8969 16.4667L23.4808 16.8707L22.8636 11.9488Z" fill="black"/>
<rect width="4" height="4" transform="matrix(-1 0 0 1 22 7)" fill="black"/>
<path d="M21.625 7.17647L22 11" stroke="black"/>
</g>
</g>
<defs>
<filter id="filter0_f_5_96" x="6.38909" y="5.4" width="19.2218" height="21.5099" filterUnits="userSpaceOnUse" color-interpolation-filters="sRGB">
<feFlood flood-opacity="0" result="BackgroundImageFix"/>
<feBlend mode="normal" in="SourceGraphic" in2="BackgroundImageFix" result="shape"/>
<feGaussianBlur stdDeviation="0.05" result="effect1_foregroundBlur_5_96"/>
</filter>
<filter id="filter1_d_5_96" x="2.48909" y="4.5" width="27.0218" height="29.3099" filterUnits="userSpaceOnUse" color-interpolation-filters="sRGB">
<feFlood flood-opacity="0" result="BackgroundImageFix"/>
<feColorMatrix in="SourceAlpha" type="matrix" values="0 0 0 0 0 0 0 0 0 0 0 0 0 0 0 0 0 0 127 0" result="hardAlpha"/>
<feOffset dy="3"/>
<feGaussianBlur stdDeviation="2"/>
<feComposite in2="hardAlpha" operator="out"/>
<feColorMatrix type="matrix" values="0 0 0 0 0 0 0 0 0 0 0 0 0 0 0 0 0 0 0.1 0"/>
<feBlend mode="normal" in2="BackgroundImageFix" result="effect1_dropShadow_5_96"/>
<feBlend mode="normal" in="SourceGraphic" in2="effect1_dropShadow_5_96" result="shape"/>
</filter>
<clipPath id="clip0_5_96">
<rect width="32" height="32" fill="white"/>
</clipPath>
</defs>
</svg>
