<svg width="32" height="32" viewBox="0 0 32 32" fill="none" xmlns="http://www.w3.org/2000/svg">
<g clip-path="url(#clip0_2_2)">
<rect width="32" height="32" rx="3" fill="#556978"/>
<g filter="url(#filter0_b_2_2)">
<path d="M2.63 24.159H7.175V25.158H4.034V26.589H6.878V27.588H4.034V30H2.63V24.159ZM10.2562 30.09C8.71416 30.09 7.94316 29.619 7.94316 28.677V27.111C7.94316 26.565 8.11716 26.169 8.46516 25.923C8.81916 25.677 9.36216 25.554 10.0942 25.554C10.7842 25.554 11.2882 25.674 11.6062 25.914C11.9302 26.148 12.0922 26.547 12.0922 27.111V28.173H9.26616V28.569C9.26616 28.821 9.35616 29.001 9.53616 29.109C9.71616 29.217 10.0402 29.271 10.5082 29.271C10.9402 29.271 11.4262 29.208 11.9662 29.082V29.919C11.4322 30.033 10.8622 30.09 10.2562 30.09ZM10.8412 27.426V26.796C10.8412 26.652 10.7812 26.544 10.6612 26.472C10.5472 26.4 10.3522 26.364 10.0762 26.364C9.75816 26.364 9.54516 26.4 9.43716 26.472C9.32316 26.55 9.26616 26.658 9.26616 26.796V27.426H10.8412Z" fill="black"/>
</g>
<g filter="url(#filter1_f_2_2)">
<path d="M16 8.26316H10.6L11.5 13.5263H14.2V23C12.1 21.9474 7.72 19.2105 7 16.6842L8.8 5.10526C9.55 4.40351 12.04 3 16 3" stroke="black"/>
<path d="M16 8.26316H21.4L20.5 13.5263H17.8V23C19.9 21.9474 24.28 19.2105 25 16.6842L23.2 5.10526C22.45 4.40351 19.96 3 16 3" stroke="black"/>
<path d="M13.75 13.5882V22.4118C11.6875 21.0392 7.5625 17.8235 7.5625 15.9412C7.5625 14.0588 9.8125 13.5882 10.9375 13.5882L13.1875 14.1765L11.0781 17.1176M11.0781 17.1176L9.8125 18.8824C8.6875 17.7059 7.1125 15.1176 9.8125 14.1765C12.5125 13.2353 11.7812 15.7451 11.0781 17.1176Z" stroke="black"/>
<path d="M14.0029 13.894L13.4921 21.4652L9.12512 19.5143L14.0029 13.894Z" fill="black"/>
<circle cx="11" cy="16" r="3" fill="black"/>
<path d="M10.9375 14.7647L9.25 5.94118L8.125 15.9412L9.8125 4.7647L16 3.58823" stroke="black"/>
<path d="M9.13637 8.94883L11.1031 13.4667L8.51915 13.8707L9.13637 8.94883Z" fill="black"/>
<rect x="14" y="3" width="4" height="5" fill="black"/>
<rect x="10" y="4" width="4" height="4" fill="black"/>
<path d="M10.375 4.17647L10 8" stroke="black"/>
<path d="M18.25 13.5882V22.4118C20.3125 21.0392 24.4375 17.8235 24.4375 15.9412C24.4375 14.0588 22.1875 13.5882 21.0625 13.5882L18.8125 14.1765L20.9219 17.1176M20.9219 17.1176L22.1875 18.8824C23.3125 17.7059 24.8875 15.1176 22.1875 14.1765C19.4875 13.2353 20.2188 15.7451 20.9219 17.1176Z" stroke="black"/>
<path d="M17.9971 13.894L18.5079 21.4652L22.8749 19.5143L17.9971 13.894Z" fill="black"/>
<circle r="3" transform="matrix(-1 0 0 1 21 16)" fill="black"/>
<path d="M21.0625 14.7647L22.75 5.94118L23.875 15.9412L22.1875 4.7647L16 3.58823" stroke="black"/>
<path d="M22.8636 8.94883L20.8969 13.4667L23.4808 13.8707L22.8636 8.94883Z" fill="black"/>
<rect width="4" height="4" transform="matrix(-1 0 0 1 22 4)" fill="black"/>
<path d="M21.625 4.17647L22 8" stroke="black"/>
</g>
<g filter="url(#filter2_d_2_2)">
<path d="M16 8.26316H10.6L11.5 13.5263H14.2V23C12.1 21.9474 7.72 19.2105 7 16.6842L8.8 5.10526C9.55 4.40351 12.04 3 16 3" stroke="black"/>
<path d="M16 8.26316H21.4L20.5 13.5263H17.8V23C19.9 21.9474 24.28 19.2105 25 16.6842L23.2 5.10526C22.45 4.40351 19.96 3 16 3" stroke="black"/>
<path d="M13.75 13.5882V22.4118C11.6875 21.0392 7.5625 17.8235 7.5625 15.9412C7.5625 14.0588 9.8125 13.5882 10.9375 13.5882L13.1875 14.1765L11.0781 17.1176M11.0781 17.1176L9.8125 18.8824C8.6875 17.7059 7.1125 15.1176 9.8125 14.1765C12.5125 13.2353 11.7812 15.7451 11.0781 17.1176Z" stroke="black"/>
<path d="M14.0029 13.894L13.4921 21.4652L9.12512 19.5143L14.0029 13.894Z" fill="black"/>
<circle cx="11" cy="16" r="3" fill="black"/>
<path d="M10.9375 14.7647L9.25 5.94118L8.125 15.9412L9.8125 4.7647L16 3.58823" stroke="black"/>
<path d="M9.13637 8.94883L11.1031 13.4667L8.51915 13.8707L9.13637 8.94883Z" fill="black"/>
<rect x="14" y="3" width="4" height="5" fill="black"/>
<rect x="10" y="4" width="4" height="4" fill="black"/>
<path d="M10.375 4.17647L10 8" stroke="black"/>
<path d="M18.25 13.5882V22.4118C20.3125 21.0392 24.4375 17.8235 24.4375 15.9412C24.4375 14.0588 22.1875 13.5882 21.0625 13.5882L18.8125 14.1765L20.9219 17.1176M20.9219 17.1176L22.1875 18.8824C23.3125 17.7059 24.8875 15.1176 22.1875 14.1765C19.4875 13.2353 20.2188 15.7451 20.9219 17.1176Z" stroke="black"/>
<path d="M17.9971 13.894L18.5079 21.4652L22.8749 19.5143L17.9971 13.894Z" fill="black"/>
<circle r="3" transform="matrix(-1 0 0 1 21 16)" fill="black"/>
<path d="M21.0625 14.7647L22.75 5.94118L23.875 15.9412L22.1875 4.7647L16 3.58823" stroke="black"/>
<path d="M22.8636 8.94883L20.8969 13.4667L23.4808 13.8707L22.8636 8.94883Z" fill="black"/>
<rect width="4" height="4" transform="matrix(-1 0 0 1 22 4)" fill="black"/>
<path d="M21.625 4.17647L22 8" stroke="black"/>
</g>
</g>
<defs>
<filter id="filter0_b_2_2" x="-1.37" y="20.159" width="17.4622" height="13.931" filterUnits="userSpaceOnUse" color-interpolation-filters="sRGB">
<feFlood flood-opacity="0" result="BackgroundImageFix"/>
<feGaussianBlur in="BackgroundImage" stdDeviation="2"/>
<feComposite in2="SourceAlpha" operator="in" result="effect1_backgroundBlur_2_2"/>
<feBlend mode="normal" in="SourceGraphic" in2="effect1_backgroundBlur_2_2" result="shape"/>
</filter>
<filter id="filter1_f_2_2" x="6.38909" y="2.4" width="19.2218" height="21.5099" filterUnits="userSpaceOnUse" color-interpolation-filters="sRGB">
<feFlood flood-opacity="0" result="BackgroundImageFix"/>
<feBlend mode="normal" in="SourceGraphic" in2="BackgroundImageFix" result="shape"/>
<feGaussianBlur stdDeviation="0.05" result="effect1_foregroundBlur_2_2"/>
</filter>
<filter id="filter2_d_2_2" x="2.48909" y="1.5" width="27.0218" height="29.3099" filterUnits="userSpaceOnUse" color-interpolation-filters="sRGB">
<feFlood flood-opacity="0" result="BackgroundImageFix"/>
<feColorMatrix in="SourceAlpha" type="matrix" values="0 0 0 0 0 0 0 0 0 0 0 0 0 0 0 0 0 0 127 0" result="hardAlpha"/>
<feOffset dy="3"/>
<feGaussianBlur stdDeviation="2"/>
<feComposite in2="hardAlpha" operator="out"/>
<feColorMatrix type="matrix" values="0 0 0 0 0 0 0 0 0 0 0 0 0 0 0 0 0 0 0.1 0"/>
<feBlend mode="normal" in2="BackgroundImageFix" result="effect1_dropShadow_2_2"/>
<feBlend mode="normal" in="SourceGraphic" in2="effect1_dropShadow_2_2" result="shape"/>
</filter>
<clipPath id="clip0_2_2">
<rect width="32" height="32" fill="white"/>
</clipPath>
</defs>
</svg>
