<?xml version="1.0" standalone="no"?>
<!DOCTYPE svg PUBLIC "-//W3C//DTD SVG 20010904//EN"
 "http://www.w3.org/TR/2001/REC-SVG-20010904/DTD/svg10.dtd">
<svg version="1.0" xmlns="http://www.w3.org/2000/svg"
 width="512.000000pt" height="512.000000pt" viewBox="0 0 512.000000 512.000000"
 preserveAspectRatio="xMidYMid meet">
<metadata>
Created by potrace 1.14, written by Peter Selinger 2001-2017
</metadata>
<g transform="translate(0.000000,512.000000) scale(0.100000,-0.100000)"
fill="#000000" stroke="none">
<path d="M2235 4225 c-314 -41 -591 -135 -795 -270 -36 -24 -76 -54 -88 -68
-26 -28 -3 108 -263 -1557 -28 -179 -51 -341 -51 -361 -1 -50 67 -188 140
-285 192 -258 620 -582 1063 -805 54 -27 103 -49 109 -49 7 0 10 285 10 865
l0 865 -219 0 c-127 0 -222 4 -226 9 -4 7 -115 640 -115 658 0 2 342 3 760 3
418 0 760 -2 760 -5 0 -3 -25 -149 -55 -325 -30 -176 -55 -324 -55 -330 0 -6
-81 -10 -225 -10 l-225 0 0 -865 c0 -580 3 -865 10 -865 6 0 55 22 109 49 441
222 871 547 1062 802 74 100 142 238 141 288 0 30 -100 683 -257 1680 -38 241
-34 232 -145 306 -198 131 -504 234 -800 270 -152 18 -503 18 -645 0z"/>
</g>
</svg>
